<?xml version="1.0" encoding="utf-8"?>
<!-- Generator: Adobe Illustrator 16.0.0, SVG Export Plug-In . SVG Version: 6.00 Build 0)  -->
<!DOCTYPE svg PUBLIC "-//W3C//DTD SVG 1.1//EN" "http://www.w3.org/Graphics/SVG/1.1/DTD/svg11.dtd">
<svg version="1.1" id="Layer_1" xmlns="http://www.w3.org/2000/svg" xmlns:xlink="http://www.w3.org/1999/xlink" x="0px" y="0px"
	 width="13.5px" height="17.401px" viewBox="0 0 13.5 17.401" enable-background="new 0 0 13.5 17.401" xml:space="preserve">
<path fill="#FFFFFF" d="M2.081,11.737c-0.392-0.113-0.585,0.262-0.585,0.631c0,0.426,0.193,0.867,0.585,0.98
	c0.402,0.115,0.591-0.229,0.591-0.615S2.494,11.856,2.081,11.737"/>
<path fill="#FFFFFF" d="M9.226,3.235C9.273,3.039,9.3,2.836,9.3,2.625C9.3,1.176,8.125,0,6.675,0C5.225,0,4.05,1.176,4.05,2.625
	c0,0.219,0.03,0.43,0.08,0.632C1.704,3.659,0,4.603,0,5.7v9.05c0,1.463,3.022,2.65,6.75,2.65s6.75-1.188,6.75-2.65V5.7
	C13.5,4.58,11.729,3.623,9.226,3.235 M4.579,2.043c0.326-1.132,1.508-1.785,2.64-1.459c0.647,0.187,1.136,0.653,1.376,1.229
	C8.376,1.632,8.119,1.492,7.83,1.408C6.697,1.082,5.515,1.735,5.189,2.867c-0.14,0.485-0.098,0.979,0.082,1.411
	C4.636,3.753,4.336,2.884,4.579,2.043z M2.781,3.875C2.112,4.223,1.72,4.642,1.72,5.093c0,1.197,2.747,2.167,6.136,2.167
	c1.507,0,2.888-0.192,3.955-0.511c-1.104,0.573-2.965,0.949-5.075,0.949c-3.389,0-6.136-0.97-6.136-2.167
	C0.6,4.867,1.448,4.272,2.781,3.875z M3.425,14.165c0,0.955-0.591,1.264-1.448,1.02c-0.308-0.09-1.186-0.5-1.186-0.938
	c0-0.148,0.157-0.303,0.303-0.26c0.24,0.068,0.507,0.393,0.941,0.518c0.366,0.105,0.637-0.043,0.637-0.445v-0.188l-0.01-0.004
	c-0.157,0.197-0.413,0.256-0.758,0.158c-0.789-0.227-1.16-1.068-1.16-1.857c0-0.799,0.481-1.406,1.238-1.189
	c0.256,0.074,0.549,0.279,0.69,0.563c0.047-0.197,0.168-0.283,0.377-0.223c0.219,0.063,0.376,0.285,0.376,0.549V14.165z
	 M4.661,12.944v1.219c0,0.266-0.165,0.418-0.397,0.383s-0.398-0.236-0.398-0.502v-2.164c0-0.264,0.21-0.365,0.409-0.336
	c0.21,0.033,0.386,0.137,0.386,0.391l0.011,0.002c0.149-0.199,0.309-0.285,0.558-0.248c0.193,0.029,0.386,0.197,0.386,0.482
	c0,0.262-0.237,0.242-0.475,0.316C4.904,12.561,4.661,12.629,4.661,12.944z M7.641,11.038l-1.468,3.4
	c-0.055,0.121-0.132,0.205-0.309,0.205c-0.182,0-0.331-0.133-0.331-0.305c0-0.016,0.017-0.078,0.05-0.154l1.473-3.4
	c0.05-0.121,0.133-0.203,0.311-0.203c0.182,0,0.324,0.131,0.324,0.303C7.691,10.901,7.675,10.961,7.641,11.038z M10.121,14.301
	c-0.145,0.023-0.254-0.047-0.381-0.182l-0.973-1.043l-0.012,0.002v0.967c0,0.264-0.164,0.467-0.396,0.504s-0.396-0.113-0.396-0.379
	v-3.398c0-0.266,0.164-0.469,0.396-0.504c0.232-0.037,0.396,0.111,0.396,0.377v1.854l0.873-0.982
	c0.127-0.143,0.254-0.213,0.358-0.229c0.199-0.033,0.337,0.129,0.337,0.305c0,0.115-0.039,0.217-0.154,0.34l-0.707,0.74l0.934,0.945
	c0.071,0.072,0.1,0.16,0.1,0.248C10.496,14.077,10.33,14.268,10.121,14.301z M11.548,13.836c-0.402,0.172-0.998,0.174-0.998-0.186
	c0-0.121,0.109-0.4,0.308-0.484c0.278-0.119,0.402,0.1,0.74-0.047c0.218-0.092,0.282-0.197,0.282-0.346
	c0-0.365-1.241,0.221-1.241-0.689c0-0.553,0.403-1.1,0.969-1.342c0.353-0.15,0.894-0.199,0.894,0.193
	c0,0.182-0.125,0.404-0.293,0.477c-0.135,0.059-0.407-0.057-0.641,0.043c-0.129,0.055-0.242,0.17-0.242,0.324
	c0,0.371,1.24-0.215,1.24,0.689C12.566,12.999,12.164,13.575,11.548,13.836z"/>
</svg>
