<?xml version="1.0" encoding="utf-8"?>
<!-- Generator: Adobe Illustrator 16.0.0, SVG Export Plug-In . SVG Version: 6.00 Build 0)  -->
<!DOCTYPE svg PUBLIC "-//W3C//DTD SVG 1.1//EN" "http://www.w3.org/Graphics/SVG/1.1/DTD/svg11.dtd">
<svg version="1.1" id="Layer_1" xmlns="http://www.w3.org/2000/svg" xmlns:xlink="http://www.w3.org/1999/xlink" x="0px" y="0px"
	 width="21.92px" height="17.838px" viewBox="0 0 21.92 17.838" enable-background="new 0 0 21.92 17.838" xml:space="preserve">
<g>
	<defs>
		<rect id="SVGID_1_" width="21.92" height="17.838"/>
	</defs>
	<clipPath id="SVGID_2_">
		<use xlink:href="#SVGID_1_"  overflow="visible"/>
	</clipPath>
	<path clip-path="url(#SVGID_2_)" fill="#FFFFFF" d="M21.918,5.19c0-0.026-0.004-0.052-0.01-0.077
		c-0.002-0.009-0.005-0.018-0.008-0.028c-0.006-0.019-0.013-0.038-0.021-0.056c-0.004-0.009-0.008-0.018-0.014-0.027
		c-0.011-0.019-0.023-0.037-0.037-0.055c-0.006-0.005-0.009-0.011-0.014-0.017c-0.021-0.022-0.043-0.042-0.068-0.06
		c0-0.001,0-0.001-0.002-0.002c-0.004-0.003-0.01-0.004-0.014-0.007c-0.018-0.01-0.033-0.021-0.051-0.029l-10.96-4.8
		c-0.091-0.04-0.194-0.044-0.289-0.012L0.271,3.461c-0.027,0.01-0.053,0.021-0.077,0.036c0,0-0.001,0-0.002,0.001
		C0.19,3.499,0.188,3.501,0.185,3.503C0.162,3.519,0.14,3.535,0.121,3.556c-0.007,0.006-0.013,0.013-0.019,0.02
		C0.087,3.592,0.073,3.61,0.061,3.629C0.057,3.638,0.052,3.645,0.048,3.652C0.033,3.678,0.021,3.707,0.013,3.736
		c0,0.003,0,0.005-0.001,0.008C0.005,3.771,0.002,3.8,0.001,3.829C0.001,3.832,0,3.836,0,3.84v8.081
		c0,0.148,0.082,0.285,0.214,0.354l10.56,5.52c0.008,0.004,0.016,0.006,0.023,0.01c0.017,0.008,0.034,0.014,0.051,0.018
		c0.015,0.006,0.029,0.008,0.044,0.012c0.018,0.002,0.036,0.004,0.054,0.004c0.015,0,0.03,0.002,0.045,0
		c0.017-0.002,0.035-0.004,0.053-0.008c0.015-0.004,0.029-0.006,0.044-0.012c0.006-0.002,0.012-0.002,0.018-0.004l10.561-4.16
		c0.152-0.061,0.254-0.209,0.254-0.373V5.205c0,0,0,0,0-0.001V5.2C21.92,5.196,21.918,5.193,21.918,5.19 M10.56,16.78
		c-1.022-0.535-9.372-4.898-9.76-5.104c0-0.416,0-6.098,0-7.176c1.022,0.534,9.371,4.899,9.76,5.102
		C10.56,10.02,10.56,15.702,10.56,16.78z M10.983,8.92L1.414,3.919c0.98-0.332,2.638-0.894,4.274-1.447
		c0.02,0.014,0.04,0.027,0.063,0.038l9.664,4.665L10.983,8.92z M14.829,13.874c-0.138,0.047-0.244,0-0.365-0.105l-0.926-0.822
		l-0.012,0.004v0.922c0,0.254-0.158,0.477-0.379,0.553c-0.223,0.078-0.38-0.035-0.38-0.287v-3.246c0-0.254,0.157-0.479,0.38-0.555
		c0.221-0.076,0.379,0.037,0.379,0.289v1.771l0.833-1.096c0.121-0.158,0.242-0.248,0.343-0.281c0.189-0.066,0.321,0.061,0.321,0.229
		c0,0.111-0.037,0.215-0.147,0.354l-0.674,0.834l0.889,0.734c0.07,0.055,0.096,0.137,0.096,0.221
		C15.186,13.59,15.028,13.803,14.829,13.874z M17.899,11.698c0,0.676-0.447,1.264-1.248,1.541c-0.801,0.279-1.249,0.002-1.249-0.672
		v-1.369c0-0.254,0.158-0.477,0.379-0.555c0.222-0.076,0.38,0.037,0.38,0.291v1.354c0,0.316,0.237,0.408,0.49,0.32
		s0.49-0.346,0.49-0.662v-1.354c0-0.254,0.158-0.477,0.379-0.553c0.221-0.078,0.379,0.037,0.379,0.289V11.698z M19.227,12.342
		c-0.428,0.15-1.059,0.127-1.059-0.215c0-0.115,0.115-0.379,0.326-0.451c0.295-0.104,0.428,0.109,0.785-0.016
		c0.232-0.08,0.301-0.178,0.301-0.32c0-0.348-1.317,0.164-1.317-0.707c0-0.525,0.427-1.031,1.026-1.241
		c0.375-0.13,0.949-0.156,0.949,0.217c0,0.174-0.132,0.383-0.311,0.445c-0.143,0.051-0.432-0.07-0.68,0.016
		c-0.138,0.047-0.258,0.152-0.258,0.301c0,0.354,1.316-0.158,1.316,0.705C20.307,11.583,19.881,12.116,19.227,12.342z M16.381,6.794
		c-0.035-0.042-0.079-0.079-0.133-0.104L6.76,2.108c1.966-0.665,3.664-1.24,3.781-1.28c0.228,0.1,7.398,3.24,9.937,4.353
		L16.381,6.794z"/>
</g>
</svg>
