<?xml version="1.0" encoding="utf-8"?>
<!-- Generator: Adobe Illustrator 16.0.0, SVG Export Plug-In . SVG Version: 6.00 Build 0)  -->
<!DOCTYPE svg PUBLIC "-//W3C//DTD SVG 1.1//EN" "http://www.w3.org/Graphics/SVG/1.1/DTD/svg11.dtd">
<svg version="1.1" id="Layer_1" xmlns="http://www.w3.org/2000/svg" xmlns:xlink="http://www.w3.org/1999/xlink" x="0px" y="0px"
	 width="15.9px" height="18.884px" viewBox="0 0 15.9 18.884" enable-background="new 0 0 15.9 18.884" xml:space="preserve">
<g>
	<defs>
		<rect id="SVGID_1_" width="15.9" height="18.884"/>
	</defs>
	<clipPath id="SVGID_2_">
		<use xlink:href="#SVGID_1_"  overflow="visible"/>
	</clipPath>
	<path clip-path="url(#SVGID_2_)" fill="#FFFFFF" d="M15.898,17.828L14.082,4.142c-0.008-0.052-0.029-0.096-0.061-0.132
		c-0.049-0.095-0.137-0.165-0.24-0.188L4.225,1.648C4.071,1.613,3.911,1.684,3.832,1.82L2.164,4.715
		C2.107,4.813,2.1,4.933,2.144,5.036C2.189,5.142,2.28,5.218,2.39,5.245l0.835,0.207L1.399,15.898
		c-0.032,0.182,0.08,0.359,0.26,0.41l9.3,2.564c0.105,0.029,0.213,0.006,0.298-0.051c0.008-0.004,0.017-0.004,0.024-0.01
		c0,0,2.156-1.227,2.33-1.326c0.187,0.059,1.967,0.613,1.967,0.613c0.08,0.023,0.168,0.006,0.234-0.049
		C15.877,17.996,15.908,17.912,15.898,17.828 M3.028,4.66c0.319-0.553,1.106-1.919,1.296-2.249c0.469,0.106,8.083,1.838,8.858,2.015
		c-0.264,0.556-0.982,2.071-1.164,2.453C11.505,6.753,3.846,4.862,3.028,4.66z M3.927,5.625l8.204,2.026
		c0.167,0.041,0.339-0.041,0.412-0.196l0.707-1.489l-2.258,12.167c-1.155-0.316-8.284-2.283-8.826-2.434
		C2.261,15.156,3.639,7.271,3.927,5.625z"/>
</g>
</svg>
