<svg xmlns="http://www.w3.org/2000/svg" version="1.1" x="0" y="0" viewBox="0 0 93.8 40" xml:space="preserve"><style type="text/css">
	.st0{clip-path:url(#SVGID_2_);}
	.st1{opacity:0.6;clip-path:url(#SVGID_4_);}
	.st2{clip-path:url(#SVGID_6_);fill:#FFFFFF;}
	.st3{opacity:0.8;clip-path:url(#SVGID_4_);}
	.st4{clip-path:url(#SVGID_8_);fill:#FFFFFF;}
	.st5{clip-path:url(#SVGID_10_);fill:#FFFFFF;}
	.st6{clip-path:url(#SVGID_12_);fill:#FFFFFF;}
	.st7{clip-path:url(#SVGID_4_);fill:#FFFFFF;}
</style><defs><rect y="0" width="93.8" height="40"/></defs><g class="st0"><defs><rect y="0" width="93.8" height="40"/></defs><g class="st1"><defs><rect x="76" y="34.3" width="8.1" height="5.9"/></defs><path class="st2" d="M80 36.3c-0.3 0-0.6 0.1-0.9 0.3 -0.3 0.2-0.5 0.4-0.7 0.7 -0.2 0.3-0.2 0.6-0.2 0.9 0 0.3 0.1 0.6 0.2 0.9 0.2 0.3 0.4 0.5 0.7 0.7 0.3 0.2 0.6 0.3 0.9 0.3 0.3 0 0.6-0.1 0.9-0.3 0.3-0.2 0.5-0.4 0.7-0.7 0.2-0.3 0.2-0.6 0.2-0.9 0-0.3 0-0.5-0.1-0.7 -0.1-0.2-0.2-0.4-0.4-0.6 -0.2-0.2-0.4-0.3-0.6-0.4C80.5 36.3 80.3 36.3 80 36.3M80 39.5c-0.2 0-0.4 0-0.5-0.1 -0.2-0.1-0.3-0.2-0.5-0.3 -0.1-0.1-0.2-0.3-0.3-0.5 -0.1-0.2-0.1-0.4-0.1-0.5 0-0.2 0-0.4 0.1-0.5 0.1-0.2 0.2-0.3 0.3-0.5 0.1-0.1 0.3-0.2 0.4-0.3 0.2-0.1 0.4-0.1 0.5-0.1 0.2 0 0.4 0 0.5 0.1 0.2 0.1 0.3 0.2 0.5 0.3 0.1 0.1 0.2 0.3 0.3 0.5 0.1 0.2 0.1 0.4 0.1 0.5 0 0.2 0 0.4-0.1 0.5 -0.1 0.2-0.2 0.3-0.3 0.5 -0.1 0.1-0.3 0.2-0.5 0.3C80.4 39.5 80.2 39.5 80 39.5M80.1 37.2h-0.6c-0.1 0-0.1 0-0.2 0.1 0 0 0 0.1 0 0.2v1.6c0 0.1 0 0.1 0 0.2 0 0 0.1 0.1 0.2 0.1 0.1 0 0.2-0.1 0.2-0.2v-0.6h0.2l0.3 0.6c0 0.1 0.1 0.1 0.1 0.1l0.1 0.1c0 0 0.1 0 0.1 0 0.2 0 0.2-0.1 0.2-0.2l0-0.1 -0.4-0.6c0.2 0 0.3-0.1 0.4-0.2 0.1-0.1 0.1-0.2 0.1-0.4 0-0.2-0.1-0.4-0.2-0.5C80.5 37.2 80.3 37.2 80.1 37.2M79.7 38v-0.4h0.4c0.1 0 0.2 0 0.2 0 0 0 0.1 0.1 0.1 0.2 0 0.1 0 0.1-0.1 0.2 0 0-0.1 0-0.2 0H79.7z"/></g><g class="st3"><defs><rect x="76.8" y="3" width="9.3" height="16"/></defs><path class="st4" d="M81.3 5c-0.3 0-0.6 0.1-0.8 0.3 -2.8 2.8-1.2 5.2-0.1 7 1.1 1.7 1.9 2.8 0.4 4.7 -0.4 0.5-0.3 1.2 0.2 1.6 0.2 0.2 0.4 0.2 0.7 0.2 0.3 0 0.7-0.2 0.9-0.4 2.5-3.1 0.9-5.6-0.3-7.3 -1.2-1.9-1.7-2.7-0.2-4.2 0.2-0.2 0.3-0.5 0.3-0.8 0-0.3-0.1-0.6-0.3-0.8C81.9 5.1 81.6 5 81.3 5"/></g><g class="st1"><defs><rect x="73.1" y="5.6" width="8.6" height="12"/></defs><path class="st5" d="M77.1 7.5c-0.3 0-0.7 0.1-0.9 0.4 -1.8 2.2-0.5 3.9 0.3 5 0.9 1.2 1.1 1.7 0.5 2.7 -0.3 0.5-0.2 1.2 0.3 1.5 0.2 0.1 0.4 0.2 0.6 0.2 0.4 0 0.7-0.2 0.9-0.5 1.5-2.4 0.3-4.1-0.6-5.2 -0.8-1.1-1-1.4-0.3-2.3 0.2-0.2 0.3-0.5 0.2-0.8 0-0.3-0.2-0.6-0.4-0.7C77.6 7.6 77.3 7.5 77.1 7.5"/></g><g class="st1"><defs><rect x="81.5" y="5.4" width="8.6" height="12"/></defs><path class="st6" d="M85.5 7.4c-0.3 0-0.7 0.1-0.9 0.4 -1.8 2.2-0.5 3.9 0.3 5 0.9 1.2 1.1 1.7 0.5 2.7 -0.2 0.2-0.2 0.5-0.1 0.8 0.1 0.3 0.2 0.5 0.5 0.7 0.2 0.1 0.4 0.2 0.6 0.2 0.4 0 0.7-0.2 0.9-0.5 1.5-2.4 0.3-4.1-0.6-5.2 -0.8-1.1-1-1.4-0.3-2.3 0.2-0.2 0.3-0.5 0.2-0.8 0-0.3-0.2-0.6-0.4-0.7C86 7.5 85.7 7.4 85.5 7.4"/></g><path class="st7" d="M81.8 24h-1.5c-0.7 0-1.2-0.5-1.2-1.2 0-0.7 0.5-1.2 1.2-1.2h1.5c5.3 0 9.6-4.3 9.6-9.6 0-5.3-4.3-9.6-9.6-9.6 -5.3 0-9.6 4.3-9.6 9.6 0 0.7-0.5 1.2-1.2 1.2 -0.7 0-1.2-0.5-1.2-1.2 0-6.6 5.4-12 12-12 6.6 0 12 5.4 12 12S88.4 24 81.8 24M0 37.1V23.2c0-0.9 0.2-1.6 0.7-2.1 0.5-0.5 1.1-0.8 1.9-0.8 0.7 0 1.2 0.2 1.6 0.5 0.4 0.3 0.7 0.8 0.8 1.5 1.3-1.5 2.9-2.2 4.8-2.2 2.2 0 4 0.9 5.4 2.6 0.7-0.8 1.6-1.4 2.6-1.9 1-0.5 2-0.7 2.9-0.7 1.4 0 2.7 0.3 3.8 0.8 1.1 0.5 1.9 1.3 2.5 2.4 0.6 1.1 0.9 2.3 0.9 3.8v10c0 0.6-0.1 1.1-0.3 1.5 -0.2 0.4-0.5 0.8-0.9 1 -0.4 0.2-0.8 0.4-1.3 0.4 -0.8 0-1.4-0.3-1.9-0.8 -0.5-0.5-0.7-1.2-0.7-2.1V28c0-0.7-0.1-1.3-0.4-1.9 -0.2-0.5-0.6-0.9-1.1-1.3 -0.5-0.3-1-0.5-1.6-0.5 -0.9 0-1.7 0.3-2.2 1 -0.6 0.7-0.8 1.5-0.8 2.6v9.1c0 0.6-0.1 1.1-0.3 1.5 -0.2 0.4-0.5 0.8-0.9 1 -0.4 0.2-0.8 0.4-1.3 0.4 -0.8 0-1.4-0.3-1.9-0.8 -0.5-0.5-0.7-1.2-0.7-2.1V28c0-0.7-0.1-1.3-0.4-1.9 -0.2-0.5-0.6-0.9-1.1-1.3 -0.5-0.3-1-0.5-1.6-0.5 -0.7 0-1.3 0.1-1.7 0.5 -0.5 0.3-0.8 0.7-1 1.2 -0.2 0.5-0.3 1.2-0.3 1.9v9.1c0 0.6-0.1 1.1-0.3 1.5 -0.2 0.4-0.5 0.8-0.9 1C3.5 39.9 3.1 40 2.6 40c-0.8 0-1.4-0.3-1.9-0.8C0.2 38.7 0 38 0 37.1M33.4 18.3c0.8 0 1.5-0.3 2.1-0.9 0.6-0.6 0.9-1.3 0.9-2.1 0-0.5-0.1-0.9-0.4-1.4 -0.3-0.4-0.6-0.8-1.1-1.1 -0.4-0.3-0.9-0.4-1.5-0.4 -0.8 0-1.4 0.3-2 0.9 -0.6 0.6-0.9 1.2-0.9 2 0 0.8 0.3 1.5 0.9 2.1C32 18 32.6 18.3 33.4 18.3M34.8 20.6c-0.4-0.2-0.8-0.4-1.4-0.4 -0.8 0-1.4 0.3-1.9 0.8 -0.5 0.5-0.7 1.2-0.7 2.1v13.9c0 0.9 0.2 1.6 0.7 2.1 0.5 0.5 1.1 0.8 1.9 0.8 0.5 0 0.9-0.1 1.3-0.4 0.4-0.2 0.7-0.6 0.9-1 0.2-0.4 0.3-0.9 0.3-1.5V23.2c0-0.6-0.1-1.1-0.3-1.5C35.5 21.2 35.2 20.9 34.8 20.6M38.9 37.1V23.2c0-0.9 0.2-1.6 0.7-2.1 0.5-0.5 1.1-0.8 1.9-0.8 0.7 0 1.2 0.2 1.6 0.5 0.4 0.3 0.7 0.8 0.8 1.4 1-1.4 2.7-2.1 5-2.1 1.4 0 2.6 0.3 3.7 0.8 1.1 0.6 1.9 1.4 2.5 2.4 0.6 1.1 0.9 2.3 0.9 3.8v10c0 0.6-0.1 1.1-0.3 1.5 -0.2 0.4-0.5 0.8-0.9 1C54.4 39.9 54 40 53.5 40c-0.8 0-1.4-0.3-1.9-0.8 -0.5-0.5-0.7-1.2-0.7-2.1V28c0-1.2-0.3-2.1-0.9-2.7 -0.6-0.6-1.5-0.9-2.5-0.9 -0.7 0-1.3 0.2-1.8 0.5 -0.5 0.3-0.9 0.7-1.2 1.3 -0.3 0.5-0.4 1.1-0.4 1.8v9.1c0 0.6-0.1 1.1-0.3 1.5 -0.2 0.4-0.5 0.8-0.9 1C42.5 39.9 42 40 41.5 40c-0.8 0-1.4-0.3-1.9-0.8C39.2 38.7 38.9 38 38.9 37.1M61.6 18.3c0.8 0 1.5-0.3 2.1-0.9 0.6-0.6 0.9-1.3 0.9-2.1 0-0.5-0.1-0.9-0.4-1.4 -0.3-0.4-0.6-0.8-1.1-1.1 -0.4-0.3-0.9-0.4-1.5-0.4 -0.8 0-1.4 0.3-2 0.9 -0.6 0.6-0.9 1.2-0.9 2 0 0.8 0.3 1.5 0.9 2.1C60.2 18 60.8 18.3 61.6 18.3M63 20.6c-0.4-0.2-0.8-0.4-1.4-0.4 -0.8 0-1.4 0.3-1.9 0.8 -0.5 0.5-0.7 1.2-0.7 2.1v13.9c0 0.9 0.2 1.6 0.7 2.1 0.5 0.5 1.1 0.8 1.9 0.8 0.5 0 0.9-0.1 1.3-0.4 0.4-0.2 0.7-0.6 0.9-1 0.2-0.4 0.3-0.9 0.3-1.5V23.2c0-0.6-0.1-1.1-0.3-1.5C63.7 21.2 63.4 20.9 63 20.6M68.4 37.1v-12h-1.2c-0.7 0-1.2-0.2-1.7-0.6 -0.4-0.4-0.6-1-0.6-1.7 0-0.6 0.2-1.2 0.7-1.6 0.4-0.4 1-0.7 1.6-0.7h1.2v-3.1c0-0.9 0.2-1.6 0.7-2.1 0.5-0.5 1.1-0.8 1.9-0.8 0.5 0 1 0.1 1.4 0.4 0.4 0.2 0.7 0.6 0.9 1 0.2 0.4 0.3 0.9 0.3 1.5v3.1h1.5c0.7 0 1.3 0.2 1.8 0.6 0.5 0.4 0.7 0.9 0.7 1.7 0 0.8-0.2 1.4-0.7 1.7 -0.5 0.4-1.1 0.6-1.8 0.6h-1.5v12c0 0.6-0.1 1.1-0.3 1.5 -0.2 0.4-0.5 0.8-0.9 1C72 39.9 71.5 40 71 40c-0.8 0-1.4-0.3-1.9-0.8C68.6 38.7 68.4 38 68.4 37.1"/></g></svg>