<?xml version="1.0" encoding="utf-8"?>
<!-- Generator: Adobe Illustrator 16.0.0, SVG Export Plug-In . SVG Version: 6.00 Build 0)  -->
<!DOCTYPE svg PUBLIC "-//W3C//DTD SVG 1.1//EN" "http://www.w3.org/Graphics/SVG/1.1/DTD/svg11.dtd">
<svg version="1.1" id="Layer_1" xmlns="http://www.w3.org/2000/svg" xmlns:xlink="http://www.w3.org/1999/xlink" x="0px" y="0px"
	 width="217.353px" height="243px" viewBox="0 0 217.353 243" enable-background="new 0 0 217.353 243" xml:space="preserve">
<g>
	<defs>
		<rect id="SVGID_1_" x="0.015" width="217.337" height="242.985"/>
	</defs>
	<clipPath id="SVGID_2_">
		<use xlink:href="#SVGID_1_"  overflow="visible"/>
	</clipPath>
	<path clip-path="url(#SVGID_2_)" d="M134.952,243c-48.589,0-94.836-15.275-133.741-44.176c-1.281-0.951-1.593-2.739-0.71-4.068
		L128.953,1.34c0.624-0.939,1.731-1.448,2.842-1.321c1.121,0.129,2.074,0.875,2.468,1.932l82.9,222.328
		c0.575,1.541-0.199,3.258-1.734,3.849C189.741,237.996,162.665,243,134.952,243z M7.083,195.689
		C44.463,222.725,88.613,237,134.952,237c25.977,0,51.375-4.516,75.545-13.427L130.696,9.561L7.083,195.689z"/>
</g>
<path d="M66.452,207c-15.439,0-28-12.561-28-28s12.561-28,28-28s28,12.561,28,28S81.892,207,66.452,207z M66.452,157
	c-12.131,0-22,9.869-22,22s9.869,22,22,22s22-9.869,22-22S78.583,157,66.452,157z"/>
<path d="M139.452,193c-15.439,0-28-12.561-28-28s12.561-28,28-28s28,12.561,28,28S154.892,193,139.452,193z M139.452,143
	c-12.131,0-22,9.869-22,22s9.869,22,22,22s22-9.869,22-22S151.583,143,139.452,143z"/>
<path d="M156.952,125c-16.542,0-30-13.458-30-30c0-15.916,12.439-29.072,28.319-29.951c1.301-0.074,2.525,0.722,2.981,1.959
	l17.838,48.458c0.455,1.237,0.05,2.626-1,3.424C169.835,122.888,163.563,125,156.952,125z M153.424,71.26
	c-11.643,1.71-20.472,11.745-20.472,23.74c0,13.234,10.767,24,24,24c4.551,0,8.902-1.252,12.706-3.639L153.424,71.26z"/>
<path d="M91.452,121c-0.752,0-1.481-0.283-2.038-0.799l-13.5-12.5c-0.627-0.581-0.977-1.401-0.961-2.256
	c0.016-0.854,0.395-1.662,1.043-2.219l25-21.5c0.641-0.551,1.484-0.806,2.324-0.703c0.839,0.104,1.596,0.557,2.083,1.248l6,8.5
	c0.724,1.025,0.732,2.393,0.022,3.428l-17.5,25.5c-0.493,0.718-1.274,1.187-2.141,1.284C91.674,120.994,91.563,121,91.452,121z
	 M82.457,105.583l8.486,7.857l14.354-20.916l-2.892-4.097L82.457,105.583z"/>
<path d="M180.452,210c-0.354,0-0.707-0.063-1.045-0.188l-17.5-6.5c-0.937-0.348-1.639-1.14-1.872-2.111s0.032-1.995,0.708-2.731
	l17-18.5c0.86-0.937,2.218-1.228,3.391-0.728l7,3c1.397,0.6,2.126,2.149,1.695,3.607l-6.5,22c-0.235,0.798-0.791,1.461-1.534,1.833
	C181.373,209.894,180.913,210,180.452,210z M168.183,199.242l10.303,3.827l4.834-16.362l-2.596-1.112L168.183,199.242z"/>
<path d="M127.952,218.5c-0.272,0-0.547-0.037-0.815-0.113l-23-6.5c-1.13-0.319-1.97-1.269-2.149-2.43
	c-0.179-1.161,0.336-2.319,1.317-2.964l17.5-11.5c0.789-0.52,1.777-0.636,2.666-0.314c0.889,0.32,1.574,1.041,1.851,1.944
	l5.4,17.676c0.161,0.368,0.25,0.774,0.25,1.201c0,1.656-1.342,2.999-2.998,3C127.967,218.5,127.959,218.5,127.952,218.5z
	 M112.09,207.899l11.387,3.218l-2.724-8.911L112.09,207.899z"/>
</svg>
