<?xml version="1.0" encoding="utf-8"?>
<!-- Generator: Adobe Illustrator 16.0.0, SVG Export Plug-In . SVG Version: 6.00 Build 0)  -->
<!DOCTYPE svg PUBLIC "-//W3C//DTD SVG 1.1//EN" "http://www.w3.org/Graphics/SVG/1.1/DTD/svg11.dtd">
<svg version="1.1" id="Layer_1" xmlns="http://www.w3.org/2000/svg" xmlns:xlink="http://www.w3.org/1999/xlink" x="0px" y="0px"
	 width="455.011px" height="492.626px" viewBox="0 0 455.011 492.626" enable-background="new 0 0 455.011 492.626"
	 xml:space="preserve">
<g>
	<defs>
		<rect id="SVGID_1_" x="0.015" width="454.996" height="492.626"/>
	</defs>
	<clipPath id="SVGID_2_">
		<use xlink:href="#SVGID_1_"  overflow="visible"/>
	</clipPath>
	<path clip-path="url(#SVGID_2_)" d="M83.8,0.198L27.846,6.49C10.67,8.421-1.733,23.966,0.198,41.143L47.832,464.78
		c1.931,17.176,17.477,29.579,34.653,27.647l55.954-6.292c17.176-1.931,29.579-17.477,27.648-34.652L118.453,27.846
		C116.522,10.67,100.977-1.733,83.8,0.198 M160.125,452.154c1.561,13.888-8.468,26.458-22.356,28.02l-55.955,6.291
		c-13.888,1.563-26.458-8.466-28.02-22.354L6.161,40.472c-1.562-13.888,8.467-26.458,22.356-28.02l55.954-6.291
		c13.888-1.562,26.458,8.467,28.02,22.356L160.125,452.154z"/>
</g>
<path d="M28.321,72.844c0.012-0.001,0.024-0.003,0.036-0.004l70.215-8.747c1.112-0.139,2.054-0.886,2.443-1.937
	c0.388-1.051,0.159-2.231-0.596-3.06c-8.293-9.109-23.19-13.673-38.874-11.909l-0.72,0.084c-15.97,1.99-29.568,10.104-35.485,21.178
	c-0.528,0.988-0.461,2.189,0.173,3.112C26.141,72.476,27.221,72.968,28.321,72.844 M61.566,53.226l0.649-0.077
	c10.842-1.219,21.464,1.025,28.831,5.835l-56.654,7.057C40.47,59.43,50.469,54.608,61.566,53.226z"/>
<path d="M33.973,118.214c0.012-0.002,0.024-0.003,0.035-0.005l70.217-8.747c1.112-0.139,2.054-0.886,2.442-1.937
	c0.389-1.052,0.159-2.232-0.596-3.06c-8.295-9.109-23.19-13.673-38.872-11.909l-0.723,0.085
	c-15.971,1.989-29.568,10.104-35.485,21.178c-0.528,0.988-0.46,2.189,0.174,3.113C31.793,117.845,32.873,118.337,33.973,118.214
	 M67.218,98.596l0.652-0.078c10.839-1.219,21.461,1.026,28.827,5.835l-56.653,7.059C46.121,104.798,56.12,99.977,67.218,98.596z"/>
<path d="M72.847,137.925l-0.719,0.085C56.157,140,42.56,148.114,36.643,159.187c-0.528,0.989-0.461,2.189,0.174,3.113
	c0.628,0.914,1.707,1.406,2.807,1.283c0.012-0.002,0.024-0.003,0.036-0.005l70.216-8.745c1.112-0.14,2.055-0.886,2.443-1.938
	c0.389-1.051,0.159-2.231-0.595-3.06C103.429,140.725,88.532,136.162,72.847,137.925 M45.696,156.78
	c6.077-6.613,16.076-11.434,27.173-12.816l0.649-0.076c10.841-1.22,21.465,1.025,28.831,5.835L45.696,156.78z"/>
<path d="M44.659,212.888c0.012-0.001,0.023-0.003,0.036-0.004l70.215-8.747c1.112-0.138,2.054-0.886,2.443-1.937
	c0.389-1.051,0.159-2.231-0.596-3.06c-8.294-9.109-23.19-13.673-38.874-11.909l-0.72,0.085
	c-15.971,1.989-29.568,10.104-35.485,21.177c-0.529,0.988-0.461,2.189,0.173,3.113C42.479,212.52,43.559,213.012,44.659,212.888
	 M77.904,193.27l0.648-0.077c10.843-1.219,21.466,1.025,28.832,5.835l-56.654,7.057C56.808,199.474,66.807,194.652,77.904,193.27z"
	/>
<path d="M50.312,258.258c0.011-0.001,0.023-0.002,0.036-0.004l70.215-8.748c1.112-0.138,2.054-0.885,2.443-1.937
	c0.388-1.051,0.159-2.231-0.596-3.06c-8.295-9.108-23.19-13.672-38.872-11.908l-0.723,0.085
	c-15.971,1.988-29.568,10.104-35.485,21.178c-0.528,0.987-0.46,2.188,0.174,3.111C48.132,257.89,49.212,258.382,50.312,258.258
	 M83.557,238.641l0.651-0.078c10.839-1.219,21.461,1.026,28.827,5.835l-56.652,7.058C62.459,244.842,72.458,240.022,83.557,238.641z
	"/>
<path d="M89.186,277.97l-0.719,0.085c-15.972,1.989-29.568,10.104-35.485,21.178c-0.529,0.987-0.461,2.188,0.174,3.111
	c0.627,0.914,1.707,1.406,2.807,1.282c0.012-0.001,0.024-0.001,0.035-0.003l70.216-8.747c1.113-0.138,2.055-0.885,2.444-1.936
	c0.388-1.053,0.158-2.232-0.596-3.061C119.767,280.77,104.871,276.207,89.186,277.97 M62.034,296.825
	c6.077-6.614,16.076-11.435,27.174-12.816l0.649-0.077c10.841-1.219,21.464,1.026,28.831,5.836L62.034,296.825z"/>
<path d="M60.997,352.932c0.012-0.001,0.024-0.002,0.036-0.004l70.216-8.746c1.111-0.14,2.054-0.886,2.442-1.937
	c0.389-1.052,0.159-2.232-0.595-3.061c-8.294-9.108-23.19-13.673-38.875-11.908l-0.72,0.084
	c-15.97,1.989-29.568,10.104-35.485,21.177c-0.528,0.989-0.462,2.188,0.173,3.114C58.817,352.565,59.897,353.056,60.997,352.932
	 M94.242,333.315l0.649-0.077c10.842-1.22,21.464,1.024,28.831,5.835l-56.653,7.057C73.146,339.518,83.145,334.698,94.242,333.315z"
	/>
<path d="M66.649,398.303c0.012-0.002,0.024-0.003,0.036-0.004l70.216-8.748c1.112-0.138,2.053-0.885,2.443-1.937
	c0.388-1.052,0.159-2.232-0.597-3.062c-8.294-9.107-23.19-13.671-38.871-11.908l-0.724,0.087
	c-15.971,1.987-29.568,10.103-35.484,21.178c-0.528,0.988-0.461,2.187,0.173,3.111C64.469,397.935,65.549,398.426,66.649,398.303
	 M99.894,378.685l0.652-0.076c10.839-1.22,21.461,1.024,28.827,5.834L72.72,391.5C78.797,384.887,88.796,380.067,99.894,378.685z"/>
<path d="M105.524,418.014l-0.719,0.085c-15.972,1.989-29.568,10.105-35.485,21.179c-0.529,0.987-0.461,2.188,0.173,3.111
	c0.628,0.914,1.708,1.406,2.808,1.282c0.011-0.001,0.024-0.003,0.035-0.004l70.216-8.746c1.113-0.138,2.055-0.885,2.444-1.936
	c0.388-1.053,0.159-2.233-0.596-3.062C136.105,420.814,121.209,416.25,105.524,418.014 M78.372,436.87
	c6.077-6.614,16.076-11.435,27.174-12.817l0.648-0.076c10.842-1.219,21.465,1.024,28.831,5.835L78.372,436.87z"/>
<g>
	<defs>
		<rect id="SVGID_3_" x="0.015" width="454.996" height="492.626"/>
	</defs>
	<clipPath id="SVGID_4_">
		<use xlink:href="#SVGID_3_"  overflow="visible"/>
	</clipPath>
	<path clip-path="url(#SVGID_4_)" d="M427.354,251.519l13.769-35.433c4.056-10.441-0.364-18.977-7.373-26.54
		c2.557-2.555,4.589-5.572,5.911-8.976l13.263-34.133c4.623-11.899,1.696-27.7-10.031-32.257c-1.647-0.64-3.438-1.043-5.336-1.199
		l-109.042-8.249l-34.812-27.694c-1.493-1.157-3.086-2.068-4.733-2.708c-11.728-4.557-24.556,5.122-29.179,17.021l-13.263,34.133
		c-3.502,9.013-1.576,19.374,4.576,27.777c-9.561,0.348-18.682,8.523-22.424,18.156l-13.263,34.133
		c-3.502,9.013-1.576,19.374,4.576,27.778c-9.559,0.347-18.68,8.522-22.423,18.155l-13.263,34.134
		c-3.398,8.745-1.687,18.763,4.041,27.026c-2.747,2.637-4.919,5.79-6.311,9.37l-13.262,34.132
		c-4.624,11.9-1.696,27.701,10.031,32.259c1.648,0.639,3.438,1.044,5.337,1.198l111.179,8.41l35.867,27.927
		c1.475,1.183,3.064,2.109,4.724,2.755c11.571,4.495,24.687-5.374,29.222-17.043l13.768-35.435
		c4.058-10.443-0.367-18.98-7.382-26.547c10.291,0.895,20.771-7.911,24.724-18.086l13.768-35.432
		c4.059-10.444-0.366-18.983-7.38-26.548C412.921,270.498,423.4,261.695,427.354,251.519 M437.168,117.889
		c1.409,0.116,2.735,0.412,3.94,0.881c8.849,3.438,10.909,16.4,7.225,25.883l-13.263,34.134c-1.102,2.836-2.767,5.244-4.804,7.255
		c-0.999-0.947-2.025-1.881-3.068-2.802l-91.824-73.051L437.168,117.889z M184.53,384.694c-1.409-0.116-2.735-0.412-3.941-0.88
		c-8.848-3.439-10.908-16.401-7.224-25.885l13.262-34.133c1.106-2.846,2.78-5.263,4.828-7.278c1.698,1.847,3.617,3.564,5.751,5.103
		l91.091,70.923L184.53,384.694z M374.312,374.434l-13.767,35.435c-3.684,9.478-14.238,17.582-22.849,14.235
		c-1.191-0.463-2.344-1.138-3.454-2.027L200.195,317.707l-0.075-0.055c-8.925-6.418-15.645-18.87-11.223-30.253l13.263-34.134
		c3.684-9.481,13.956-17.653,22.805-14.215c0.158,0.062,0.314,0.136,0.471,0.204c0.913,0.802,1.871,1.573,2.88,2.3l36.185,28.173
		l97.264,77.375C372.117,356.256,378.207,364.411,374.312,374.434z M405.422,294.369l-13.768,35.432
		c-3.684,9.48-14.237,17.582-22.848,14.237c-1.19-0.463-2.344-1.139-3.455-2.029l-97.886-76.213l-35.983-28.627
		c-1.033-0.799-2.115-1.473-3.229-2.029c-7.345-6.826-12.161-17.734-8.247-27.807L233.27,173.2
		c3.685-9.483,13.957-17.653,22.807-14.215c0.157,0.062,0.313,0.136,0.469,0.204c0.914,0.802,1.871,1.572,2.881,2.3l36.186,28.174
		l97.264,77.375C403.227,276.19,409.316,284.344,405.422,294.369z M399.917,263.971c-1.191-0.463-2.344-1.138-3.455-2.027
		l-97.894-76.218l-35.977-28.621c-1.033-0.8-2.115-1.474-3.228-2.031c-7.346-6.824-12.161-17.732-8.247-27.805l13.262-34.134
		c3.686-9.483,13.957-17.653,22.807-14.215c1.205,0.469,2.384,1.145,3.477,1.992l133.323,106.061
		c10.352,9.153,16.441,17.307,12.547,27.33l-13.768,35.435C419.081,259.215,408.527,267.317,399.917,263.971z"/>
</g>
<polyline points="301.95,103.583 295.642,110.869 306.183,117.748 309.74,112.174 301.95,103.583 "/>
<polyline points="294.475,138.931 293.94,145.677 301.76,145.239 294.475,138.931 "/>
<polyline points="315.82,130.533 312.164,138.154 319.415,140.971 325.054,138.989 326.058,131.034 315.82,130.533 "/>
<polyline points="313.145,164.268 311.236,178.131 323.991,177.523 324.157,169.937 319.387,162.521 313.145,164.268 "/>
<polyline points="293.004,160.615 294.416,169.51 301.733,166.789 293.004,160.615 "/>
<polyline points="344.259,157.58 344.598,167.447 352.384,163.518 359.331,159.958 354.327,153.146 344.259,157.58 "/>
<polyline points="328.448,153.522 325.966,158.121 330.565,160.604 335.934,155.736 328.448,153.522 "/>
<polyline points="338.82,184.138 339.235,193.766 351.622,191.529 350.382,185.035 338.82,184.138 "/>
<polyline points="357.654,214.969 361.896,220.242 367.282,214.553 357.654,214.969 "/>
<polyline points="367.407,194.208 369.98,202.259 377.188,199.329 379.926,194.016 375.194,187.542 367.407,194.208 "/>
<polyline points="388.624,220.572 396.754,231.962 405.61,222.762 400.521,217.133 391.963,215.015 388.624,220.572 "/>
<polyline points="371.473,231.744 378.606,237.241 382.057,230.239 371.473,231.744 "/>
<polyline points="380.25,181.205 389.846,178.874 384.42,172.045 379.526,165.964 373.869,172.244 380.25,181.205 "/>
<polyline points="392.372,202.252 393.725,207.3 398.773,205.948 399.334,198.722 392.372,202.252 "/>
<polyline points="240.721,261.167 234.413,268.452 244.954,275.33 248.511,269.756 240.721,261.167 "/>
<polyline points="233.246,296.513 232.711,303.26 240.532,302.822 233.246,296.513 "/>
<polyline points="254.591,288.116 250.935,295.736 258.186,298.553 263.824,296.571 264.829,288.616 254.591,288.116 "/>
<polyline points="251.916,321.85 250.006,335.714 262.762,335.106 262.928,327.52 258.159,320.103 251.916,321.85 "/>
<polyline points="231.775,318.198 233.187,327.092 240.503,324.372 231.775,318.198 "/>
<polyline points="283.029,315.163 283.368,325.03 291.155,321.1 298.102,317.541 293.098,310.728 283.029,315.163 "/>
<polyline points="267.219,311.104 264.736,315.704 269.335,318.187 274.705,313.318 267.219,311.104 "/>
<polyline points="277.59,341.72 278.006,351.348 290.393,349.111 289.152,342.618 277.59,341.72 "/>
<polyline points="296.425,372.551 300.668,377.824 306.053,372.136 296.425,372.551 "/>
<polyline points="306.177,351.791 308.751,359.842 315.958,356.911 318.696,351.599 313.965,345.125 306.177,351.791 "/>
<polyline points="327.394,378.155 335.525,389.544 344.381,380.344 339.293,374.716 330.733,372.598 327.394,378.155 "/>
<polyline points="310.243,389.327 317.377,394.824 320.828,387.821 310.243,389.327 "/>
<polyline points="319.021,338.788 328.616,336.458 323.191,329.627 318.297,323.547 312.64,329.827 319.021,338.788 "/>
<polyline points="331.144,359.834 332.495,364.883 337.544,363.53 338.105,356.303 331.144,359.834 "/>
<polyline points="361.789,316.319 367.442,308.514 356.344,302.576 353.284,308.436 361.789,316.319 "/>
<polyline points="366.172,280.458 366.121,273.69 358.368,274.804 366.172,280.458 "/>
<polyline points="345.635,290.672 348.617,282.764 341.149,280.585 335.704,283.049 335.392,291.062 345.635,290.672 "/>
<polyline points="345.377,256.833 346.078,242.856 333.424,244.567 333.916,252.139 339.31,259.115 345.377,256.833 "/>
<polyline points="365.759,258.727 363.581,249.988 356.528,253.333 365.759,258.727 "/>
<polyline points="314.96,266.192 313.768,256.391 306.351,260.981 299.738,265.128 305.314,271.482 314.96,266.192 "/>
<polyline points="331.063,268.864 333.138,264.068 328.34,261.992 323.413,267.308 331.063,268.864 "/>
<polyline points="318.077,239.263 316.829,229.707 304.683,233.009 306.481,239.371 318.077,239.263 "/>
<polyline points="296.643,210.18 291.958,205.294 287.087,211.428 296.643,210.18 "/>
<polyline points="288.726,231.707 285.464,223.91 278.538,227.454 276.27,232.983 281.545,239.023 288.726,231.707 "/>
<polyline points="265.304,207.281 256.216,196.639 248.191,206.572 253.748,211.738 262.458,213.106 265.304,207.281 "/>
<polyline points="281.422,194.665 273.839,189.806 271.008,197.082 281.422,194.665 "/>
<polyline points="277.056,245.775 267.7,248.927 273.696,255.26 279.099,260.895 284.19,254.149 277.056,245.775 "/>
<polyline points="263.156,225.857 261.372,220.944 256.459,222.73 256.526,229.978 263.156,225.857 "/>
</svg>
