<?xml version="1.0" encoding="utf-8"?>
<!-- Generator: Adobe Illustrator 16.0.0, SVG Export Plug-In . SVG Version: 6.00 Build 0)  -->
<!DOCTYPE svg PUBLIC "-//W3C//DTD SVG 1.1//EN" "http://www.w3.org/Graphics/SVG/1.1/DTD/svg11.dtd">
<svg version="1.1" id="Layer_1" xmlns="http://www.w3.org/2000/svg" xmlns:xlink="http://www.w3.org/1999/xlink" x="0px" y="0px"
	 width="381.9px" height="350.871px" viewBox="0 0 381.9 350.871" enable-background="new 0 0 381.9 350.871" xml:space="preserve">
<g>
    <path class="node" id="foo" />
	<defs>
		<rect id="SVGID_1_" width="381.9" height="350.856"/>
	</defs>
	<clipPath id="SVGID_2_">
		<use xlink:href="#SVGID_1_"  overflow="visible"/>
	</clipPath>
	<path clip-path="url(#SVGID_2_)" d="M86.932,226.62c-12.053,0-22.841-6.716-28.154-17.527L3.22,96.031
		c-3.693-7.515-4.239-16.018-1.536-23.943c2.702-7.924,8.33-14.322,15.845-18.015L121.016,3.22C125.363,1.083,130.007,0,134.818,0
		c12.053,0,22.842,6.716,28.155,17.527l55.558,113.061c3.692,7.515,4.238,16.017,1.536,23.942
		c-2.702,7.925-8.329,14.323-15.844,18.015L100.735,223.4C96.388,225.537,91.744,226.62,86.932,226.62z M134.818,6
		c-3.886,0-7.64,0.876-11.157,2.604L20.174,59.458c-6.077,2.986-10.627,8.159-12.812,14.567S5.618,87.309,8.604,93.385
		l55.558,113.062c4.296,8.743,13.021,14.174,22.769,14.174c3.887,0,7.641-0.876,11.157-2.604l103.488-50.854
		c6.076-2.986,10.626-8.159,12.812-14.567c2.185-6.408,1.743-13.283-1.242-19.359L157.589,20.174
		C153.292,11.432,144.567,6,134.818,6z"/>
</g>
<path d="M45.363,106.116c-0.735,0-1.461-0.27-2.026-0.788c-0.911-0.834-1.218-2.141-0.772-3.293
	c5.294-13.703,21.939-28.779,43.438-39.343c15.715-7.723,31.729-11.977,45.09-11.977c4.718,0,8.956,0.548,12.595,1.628
	c1.184,0.352,2.032,1.393,2.135,2.624c0.104,1.231-0.558,2.399-1.666,2.944l-97.47,47.897
	C46.265,106.016,45.813,106.116,45.363,106.116z M131.092,56.715c-12.282,0-27.751,4.141-42.444,11.361
	c-15.654,7.692-28.831,18.111-36.026,28.129l80.3-39.459C132.323,56.726,131.713,56.715,131.092,56.715z"/>
<path d="M65.527,147.15c-0.735,0-1.461-0.27-2.026-0.788c-0.911-0.834-1.218-2.142-0.772-3.293
	c5.295-13.704,21.939-28.779,43.437-39.344c15.717-7.723,31.731-11.976,45.091-11.976c4.719,0,8.957,0.548,12.596,1.628
	c1.184,0.352,2.032,1.393,2.135,2.624c0.104,1.231-0.558,2.399-1.666,2.944L66.85,146.842
	C66.429,147.049,65.977,147.15,65.527,147.15z M151.256,97.749c-12.28,0-27.75,4.141-42.444,11.361
	c-15.654,7.693-28.83,18.111-36.025,28.13l80.302-39.46C152.489,97.759,151.878,97.749,151.256,97.749z"/>
<path d="M85.691,188.185c-0.734,0-1.461-0.27-2.026-0.787c-0.911-0.834-1.218-2.142-0.772-3.294
	c5.292-13.703,21.937-28.779,43.437-39.345c15.715-7.723,31.728-11.976,45.089-11.976c4.72,0,8.958,0.548,12.598,1.628
	c1.184,0.352,2.032,1.393,2.135,2.624c0.104,1.231-0.558,2.399-1.666,2.944l-97.471,47.897
	C86.593,188.084,86.141,188.185,85.691,188.185z M171.418,138.783c-12.281,0-27.751,4.141-42.442,11.361
	c-15.655,7.693-28.832,18.113-36.027,28.132l80.303-39.461C172.652,138.793,172.041,138.783,171.418,138.783z"/>
<path d="M245.654,218.162c-0.624,0-1.247-0.194-1.773-0.58c-0.99-0.727-1.438-1.982-1.131-3.171
	c3.829-14.799,19.844-32.524,41.797-46.259c18.809-11.769,39.285-18.794,54.774-18.794c2.287,0,4.468,0.154,6.482,0.458
	c1.241,0.187,2.235,1.127,2.49,2.356c0.255,1.229-0.282,2.487-1.347,3.153l-99.702,62.379
	C246.758,218.011,246.205,218.162,245.654,218.162z M335.329,155.518c-13.868,1.076-31.311,7.529-47.601,17.721
	c-16.325,10.213-29.436,22.989-35.763,34.435L335.329,155.518z"/>
<path d="M244.781,262.77c-0.624,0-1.247-0.194-1.773-0.58c-0.99-0.726-1.438-1.982-1.131-3.171
	c3.828-14.801,19.844-32.526,41.797-46.26c18.81-11.77,39.288-18.796,54.778-18.796c2.285,0,4.465,0.153,6.479,0.457
	c1.241,0.188,2.235,1.128,2.49,2.357c0.255,1.229-0.282,2.486-1.347,3.152l-99.702,62.383
	C245.885,262.618,245.332,262.77,244.781,262.77z M334.454,200.123c-13.868,1.077-31.311,7.53-47.599,17.722
	c-16.325,10.214-29.437,22.99-35.763,34.437L334.454,200.123z"/>
<path d="M243.907,307.374c-0.624,0-1.247-0.194-1.773-0.58c-0.99-0.727-1.438-1.982-1.131-3.172
	c3.83-14.801,19.846-32.526,41.798-46.259c18.812-11.769,39.288-18.795,54.776-18.795c2.286,0,4.467,0.154,6.481,0.458
	c1.241,0.188,2.235,1.128,2.49,2.357c0.255,1.229-0.282,2.486-1.347,3.152l-99.704,62.381
	C245.011,307.223,244.458,307.374,243.907,307.374z M333.583,244.729c-13.866,1.076-31.31,7.529-47.601,17.721
	c-16.324,10.213-29.437,22.989-35.763,34.437L333.583,244.729z"/>
<g>
	<defs>
		<rect id="SVGID_3_" width="381.9" height="350.856"/>
	</defs>
	<clipPath id="SVGID_4_">
		<use xlink:href="#SVGID_3_"  overflow="visible"/>
	</clipPath>
	<path clip-path="url(#SVGID_4_)" d="M244.189,350.868L244.189,350.868c-3.531,0-6.947-0.709-10.155-2.107
		c-8.067-3.515-13.473-10.92-14.106-19.326l-9.955-132.088c-0.602-7.998,3.116-15.59,9.944-20.307l113.385-78.329
		c4.187-2.893,9.139-4.422,14.322-4.422c3.528,0,6.944,0.708,10.152,2.107c8.068,3.518,13.474,10.924,14.105,19.328l9.955,132.087
		c0.602,7.996-3.115,15.587-9.941,20.305l-113.387,78.332C254.322,349.34,249.37,350.868,244.189,350.868z M347.624,100.289
		c-3.959,0-7.732,1.161-10.912,3.358l-113.385,78.329c-5.056,3.493-7.812,9.07-7.372,14.92l9.955,132.087
		c0.466,6.183,4.497,11.652,10.521,14.277c2.448,1.066,5.058,1.607,7.758,1.607h0.001c3.957,0,7.729-1.161,10.909-3.357
		l113.386-78.331c5.055-3.493,7.81-9.069,7.37-14.918l-9.955-132.087c-0.466-6.182-4.496-11.652-10.521-14.279
		C352.933,100.83,350.323,100.289,347.624,100.289z"/>
</g>
</svg>
